<svg width="31" height="31" viewBox="0 0 31 31" fill="none" xmlns="http://www.w3.org/2000/svg">
<g clip-path="url(#clip0_246_1120)">
<path d="M30.12 14.8242C30.12 12.8579 27.6578 10.9942 23.8823 9.8392C24.7541 5.99193 24.3671 2.92994 22.6605 1.94926C22.2469 1.71766 21.7789 1.60108 21.3051 1.61165V2.95962C21.5833 2.95962 21.8072 3.01527 21.9951 3.11791C22.8175 3.59032 23.1749 5.38596 22.8967 7.69729C22.8299 8.26616 22.7211 8.8647 22.5875 9.47562C21.3232 9.17095 20.04 8.95075 18.7464 8.81647C17.9758 7.7533 17.135 6.74276 16.2298 5.79159C18.2023 3.95885 20.0536 2.95467 21.3125 2.95467V1.60547C19.6479 1.60547 17.4702 2.79143 15.2677 4.84801C13.0664 2.80504 10.8874 1.6302 9.22408 1.6302V2.97817C10.4768 2.97817 12.3343 3.9774 14.3068 5.79777C13.4597 6.68817 12.6125 7.69729 11.8075 8.81647C10.5112 8.94926 9.22575 9.17156 7.9602 9.4818C7.82645 8.90278 7.72121 8.31755 7.64485 7.72821C7.36042 5.41564 7.71163 3.62 8.52907 3.14265C8.70962 3.03382 8.94583 2.98435 9.22408 2.98435V1.63639C8.71704 1.63639 8.25577 1.74521 7.85756 1.974C6.15714 2.95467 5.77625 6.00924 6.65305 9.84538C2.88987 11.0078 0.440033 12.8641 0.440033 14.8242C0.440033 16.7905 2.90224 18.6542 6.67778 19.808C5.80593 23.6565 6.19301 26.7185 7.89961 27.6979C8.29287 27.9279 8.75291 28.0367 9.25994 28.0367C10.9245 28.0367 13.1023 26.8508 15.3048 24.7942C17.506 26.8384 19.6838 28.012 21.3484 28.012C21.8258 28.0221 22.2974 27.9052 22.7149 27.6732C24.4153 26.6937 24.7962 23.6392 23.9194 19.803C27.6702 18.648 30.12 16.7843 30.12 14.8242ZM22.2425 10.789C22.0075 11.5976 21.7351 12.3948 21.4263 13.1782C20.9207 12.1947 20.3655 11.2376 19.7629 10.3104C20.6224 10.4377 21.451 10.5948 22.2437 10.789H22.2425ZM19.4723 17.232C19.0194 18.0228 18.5329 18.7939 18.0143 19.5433C16.1992 19.7033 14.3736 19.7054 12.5581 19.5495C11.5168 18.062 10.6061 16.4872 9.83623 14.8428C10.6049 13.1944 11.5117 11.6141 12.547 10.1187C14.3617 9.95837 16.1868 9.95589 18.0019 10.1113C18.504 10.831 18.995 11.6002 19.4662 12.4115C19.9262 13.2029 20.3442 14.0068 20.7251 14.818C20.34 15.6391 19.922 16.4444 19.4723 17.232V17.232ZM21.4263 16.4455C21.7527 17.2555 22.0322 18.0667 22.261 18.8533C21.4696 19.0474 20.6336 19.2107 19.7691 19.3368C20.3692 18.4012 20.9223 17.4362 21.4263 16.4455V16.4455ZM15.2924 22.9009C14.7297 22.3196 14.167 21.6729 13.6105 20.9643C14.1547 20.989 14.7112 21.0075 15.2738 21.0075C15.8427 21.0075 16.4054 20.9952 16.9557 20.9643C16.4116 21.6729 15.8489 22.3196 15.2924 22.9009ZM10.7909 19.3368C9.9571 19.216 9.1293 19.0567 8.31018 18.8594C8.53402 18.0791 8.81227 17.274 9.12638 16.4702C9.37495 16.9525 9.63589 17.4373 9.92032 17.9221C10.2048 18.4056 10.4941 18.878 10.7909 19.3368ZM15.2615 6.74753C15.8242 7.32876 16.3869 7.97554 16.9434 8.68415C16.3992 8.65942 15.8427 8.64087 15.28 8.64087C14.7112 8.64087 14.1485 8.65323 13.5982 8.68415C14.1423 7.97554 14.705 7.32876 15.2615 6.74753ZM10.7847 10.3116C10.1848 11.2452 9.63174 12.2081 9.12762 13.1967C8.81006 12.4083 8.53147 11.6048 8.29287 10.789C9.08433 10.601 9.92032 10.4377 10.7847 10.3116ZM5.31003 17.885C3.16812 16.9723 1.78305 15.774 1.78305 14.8242C1.78305 13.8744 3.16812 12.6699 5.31003 11.7635C5.82943 11.5396 6.39829 11.3393 6.98571 11.1525C7.33074 12.3373 7.7846 13.5715 8.34604 14.8366C7.81597 16.0265 7.36766 17.2511 7.00426 18.502C6.42977 18.3242 5.86434 18.1182 5.31003 17.885V17.885ZM8.56493 26.5293C7.74255 26.0593 7.38515 24.2612 7.6634 21.9511C7.73018 21.3822 7.83901 20.7825 7.97257 20.1715C9.1573 20.4622 10.4521 20.686 11.8137 20.8319C12.5843 21.8951 13.4251 22.9056 14.3303 23.8568C12.3578 25.6896 10.5065 26.6937 9.24757 26.6937C9.01006 26.6963 8.77558 26.6403 8.56493 26.5305V26.5293ZM22.9152 21.9202C23.1996 24.2315 22.8484 26.0284 22.031 26.5058C21.8504 26.6146 21.6142 26.6628 21.336 26.6628C20.0832 26.6628 18.2258 25.6648 16.2533 23.8432C17.1547 22.896 17.9898 21.8878 18.7526 20.8257C20.0488 20.693 21.3343 20.4707 22.5999 20.1604C22.7396 20.7713 22.8472 21.3575 22.9152 21.9202V21.9202ZM25.2439 17.885C24.7245 18.1088 24.1556 18.3091 23.5682 18.4959C23.1984 17.2386 22.7439 16.0077 22.2078 14.8118C22.7643 13.5541 23.2108 12.3261 23.5496 11.1464C24.1259 11.3248 24.6934 11.5308 25.25 11.7635C27.3919 12.6761 28.777 13.8744 28.777 14.8242C28.7708 15.774 27.3858 16.9785 25.2439 17.885V17.885Z" fill="#C3C2C2"/>
<path d="M15.2739 17.5893C16.0072 17.5893 16.7106 17.298 17.2291 16.7794C17.7477 16.2609 18.039 15.5575 18.039 14.8241C18.039 14.0908 17.7477 13.3874 17.2291 12.8689C16.7106 12.3503 16.0072 12.059 15.2739 12.059C14.5405 12.059 13.8371 12.3503 13.3186 12.8689C12.8 13.3874 12.5087 14.0908 12.5087 14.8241C12.5087 15.5575 12.8 16.2609 13.3186 16.7794C13.8371 17.298 14.5405 17.5893 15.2739 17.5893V17.5893Z" fill="#C3C2C2"/>
</g>
<defs>
<clipPath id="clip0_246_1120">
<rect width="29.68" height="29.68" fill="white" transform="translate(0.440033 0.368774)"/>
</clipPath>
</defs>
</svg>
