<svg width="34" height="34" viewBox="0 0 34 34" fill="none" xmlns="http://www.w3.org/2000/svg">
<path d="M10.4479 23.7731L12.2187 21.5602L6.51806 17L12.2187 12.4397L10.4479 10.2269L3.36456 15.8936C3.19859 16.0263 3.0646 16.1946 2.97253 16.3862C2.88045 16.5777 2.83264 16.7875 2.83264 17C2.83264 17.2125 2.88045 17.4223 2.97253 17.6138C3.0646 17.8053 3.19859 17.9737 3.36456 18.1064L10.4479 23.7731ZM23.5521 10.2269L21.7812 12.4397L27.4819 17L21.7812 21.5602L23.5521 23.7731L30.6354 18.1064C30.8014 17.9737 30.9354 17.8053 31.0274 17.6138C31.1195 17.4223 31.1673 17.2125 31.1673 17C31.1673 16.7875 31.1195 16.5777 31.0274 16.3862C30.9354 16.1946 30.8014 16.0263 30.6354 15.8936L23.5521 10.2269ZM21.216 4.556L15.5493 30.056L12.7826 29.4412L18.4492 3.94116L21.216 4.556Z" fill="#C3C2C2"/>
</svg>
