<svg width="30" height="30" viewBox="0 0 30 30" fill="none" xmlns="http://www.w3.org/2000/svg">
<path d="M9.29978 20.6804L10.8014 18.8039L5.96727 14.9368L10.8014 11.0697L9.29978 9.19323L3.2931 13.9986C3.15236 14.1111 3.03874 14.2539 2.96066 14.4163C2.88258 14.5787 2.84204 14.7566 2.84204 14.9368C2.84204 15.117 2.88258 15.2949 2.96066 15.4573C3.03874 15.6197 3.15236 15.7625 3.2931 15.875L9.29978 20.6804ZM20.4121 9.19323L18.9104 11.0697L23.7446 14.9368L18.9104 18.8039L20.4121 20.6804L26.4188 15.875C26.5595 15.7625 26.6731 15.6197 26.7512 15.4573C26.8293 15.2949 26.8698 15.117 26.8698 14.9368C26.8698 14.7566 26.8293 14.5787 26.7512 14.4163C26.6731 14.2539 26.5595 14.1111 26.4188 13.9986L20.4121 9.19323ZM18.4311 4.38429L13.6258 26.0083L11.2796 25.4869L16.0849 3.86292L18.4311 4.38429Z" fill="#C3C2C2"/>
</svg>
