<svg width="88" height="88" viewBox="0 0 88 88" fill="none" xmlns="http://www.w3.org/2000/svg">
<path d="M27.0417 61.5303L31.625 55.803L16.8703 44L31.625 32.197L27.0417 26.4697L8.70832 41.1363C8.27876 41.4799 7.93197 41.9156 7.69366 42.4113C7.45534 42.907 7.3316 43.45 7.3316 44C7.3316 44.55 7.45534 45.093 7.69366 45.5887C7.93197 46.0844 8.27876 46.5202 8.70832 46.8637L27.0417 61.5303ZM60.9583 26.4697L56.375 32.197L71.1297 44L56.375 55.803L60.9583 61.5303L79.2917 46.8637C79.7212 46.5202 80.068 46.0844 80.3063 45.5887C80.5447 45.093 80.6684 44.55 80.6684 44C80.6684 43.45 80.5447 42.907 80.3063 42.4113C80.068 41.9156 79.7212 41.4799 79.2917 41.1363L60.9583 26.4697ZM54.912 11.792L40.2453 77.792L33.0843 76.2007L47.751 10.2007L54.912 11.792Z" fill="#C3C2C2"/>
</svg>
