<svg width="62" height="62" viewBox="0 0 62 62" fill="none" xmlns="http://www.w3.org/2000/svg">
<path d="M43.2708 59.4166H17.4374C16.0671 59.4166 14.753 58.8722 13.784 57.9033C12.8151 56.9344 12.2708 55.6202 12.2708 54.2499V7.74992C12.2708 6.37963 12.8151 5.06547 13.784 4.09653C14.753 3.1276 16.0671 2.58325 17.4374 2.58325H43.2708C44.641 2.58325 45.9552 3.1276 46.9241 4.09653C47.8931 5.06547 48.4374 6.37963 48.4374 7.74992V54.2499C48.4374 55.6202 47.8931 56.9344 46.9241 57.9033C45.9552 58.8722 44.641 59.4166 43.2708 59.4166ZM17.4374 7.74992V54.2499H43.2708V7.74992H17.4374ZM30.3541 51.6666C29.6689 51.6666 29.0119 51.3944 28.5274 50.91C28.0429 50.4255 27.7708 49.7684 27.7708 49.0833C27.7708 48.3981 28.0429 47.741 28.5274 47.2566C29.0119 46.7721 29.6689 46.4999 30.3541 46.4999C31.0392 46.4999 31.6963 46.7721 32.1808 47.2566C32.6652 47.741 32.9374 48.3981 32.9374 49.0833C32.9374 49.7684 32.6652 50.4255 32.1808 50.91C31.6963 51.3944 31.0392 51.6666 30.3541 51.6666Z" fill="white"/>
</svg>
