<svg width="62" height="62" viewBox="0 0 62 62" fill="none" xmlns="http://www.w3.org/2000/svg">
<path d="M43.2708 59.4166H17.4375C16.0672 59.4166 14.753 58.8722 13.7841 57.9033C12.8152 56.9344 12.2708 55.6202 12.2708 54.2499V7.74992C12.2708 6.37963 12.8152 5.06547 13.7841 4.09653C14.753 3.1276 16.0672 2.58325 17.4375 2.58325H43.2708C44.6411 2.58325 45.9553 3.1276 46.9242 4.09653C47.8931 5.06547 48.4375 6.37963 48.4375 7.74992V54.2499C48.4375 55.6202 47.8931 56.9344 46.9242 57.9033C45.9553 58.8722 44.6411 59.4166 43.2708 59.4166ZM17.4375 7.74992V54.2499H43.2708V7.74992H17.4375ZM30.3542 51.6666C29.669 51.6666 29.0119 51.3944 28.5275 50.9099C28.043 50.4255 27.7708 49.7684 27.7708 49.0833C27.7708 48.3981 28.043 47.741 28.5275 47.2566C29.0119 46.7721 29.669 46.4999 30.3542 46.4999C31.0393 46.4999 31.6964 46.7721 32.1809 47.2566C32.6653 47.741 32.9375 48.3981 32.9375 49.0833C32.9375 49.7684 32.6653 50.4255 32.1809 50.9099C31.6964 51.3944 31.0393 51.6666 30.3542 51.6666Z" fill="#C3C2C2"/>
</svg>
