<svg width="29" height="30" viewBox="0 0 29 30" fill="none" xmlns="http://www.w3.org/2000/svg">
<path d="M20.2396 27.9968H8.15629C7.51535 27.9968 6.90066 27.7422 6.44745 27.289C5.99424 26.8358 5.73962 26.2211 5.73962 25.5801V3.83012C5.73962 3.18918 5.99424 2.57449 6.44745 2.12128C6.90066 1.66806 7.51535 1.41345 8.15629 1.41345H20.2396C20.8806 1.41345 21.4953 1.66806 21.9485 2.12128C22.4017 2.57449 22.6563 3.18918 22.6563 3.83012V25.5801C22.6563 26.2211 22.4017 26.8358 21.9485 27.289C21.4953 27.7422 20.8806 27.9968 20.2396 27.9968ZM8.15629 3.83012V25.5801H20.2396V3.83012H8.15629ZM14.198 24.3718C13.8775 24.3718 13.5701 24.2445 13.3435 24.0179C13.1169 23.7913 12.9896 23.4839 12.9896 23.1635C12.9896 22.843 13.1169 22.5356 13.3435 22.309C13.5701 22.0824 13.8775 21.9551 14.198 21.9551C14.5184 21.9551 14.8258 22.0824 15.0524 22.309C15.279 22.5356 15.4063 22.843 15.4063 23.1635C15.4063 23.4839 15.279 23.7913 15.0524 24.0179C14.8258 24.2445 14.5184 24.3718 14.198 24.3718Z" fill="#C3C2C2"/>
</svg>
