<svg width="88" height="88" viewBox="0 0 88 88" fill="none" xmlns="http://www.w3.org/2000/svg">
<path d="M39.6 19.8001C36.3044 19.8001 33.2552 20.8341 30.7472 22.5941C30.5844 20.0729 30.008 17.8861 28.9476 15.9501C32.297 14.0966 36.0721 13.1491 39.8998 13.2012C43.7274 13.2534 47.4753 14.3034 50.7729 16.2475C54.0705 18.1916 56.8038 20.9625 58.7027 24.2864C60.6015 27.6102 61.6002 31.3721 61.6 35.2001H71.5044C73.5459 35.2001 75.5037 36.0108 76.9476 37.4538C78.3915 38.8969 79.2033 40.8543 79.2044 42.8957V67.0957C79.205 68.1076 79.0061 69.1097 78.6192 70.0447C78.2322 70.9797 77.6647 71.8293 76.9492 72.5448C76.2336 73.2604 75.3841 73.8279 74.4491 74.2148C73.5141 74.6018 72.512 74.8007 71.5001 74.8001H47.3C45.2579 74.8001 43.2994 73.9889 41.8553 72.5448C40.4113 71.1008 39.6 69.1423 39.6 67.1001V57.2001C36.5393 57.204 33.5117 56.567 30.712 55.3301C30.7692 53.8341 30.8 52.2633 30.8 50.6001V50.3273C30.8 49.5925 30.8001 48.7477 30.7869 47.8325C33.3709 49.6377 36.4479 50.604 39.6 50.6001V42.9001C39.6 38.6497 43.0496 35.2001 47.3 35.2001H55C55 31.1158 53.3776 27.1987 50.4895 24.3107C47.6014 21.4226 43.6844 19.8001 39.6 19.8001ZM60.5924 41.8001C59.526 45.1788 57.6613 48.2508 55.156 50.7561C52.6507 53.2613 49.5787 55.1261 46.2 56.1925V67.1001C46.2 67.7073 46.6928 68.2001 47.3 68.2001H71.5001C71.7918 68.2001 72.0716 68.0842 72.2779 67.8779C72.4842 67.6716 72.6001 67.3918 72.6001 67.1001V42.9001C72.6001 42.6084 72.4842 42.3286 72.2779 42.1223C72.0716 41.916 71.7918 41.8001 71.5001 41.8001H60.5924ZM53.5173 41.8001H47.3C47.0083 41.8001 46.7285 41.916 46.5222 42.1223C46.3159 42.3286 46.2 42.6084 46.2 42.9001V49.1173C49.4069 47.5908 51.9907 45.007 53.5173 41.8001V41.8001ZM20.1564 9.35012C20.5217 9.66957 20.771 10.1008 20.8657 10.5767C20.9604 11.0525 20.8951 11.5464 20.68 11.9813C20.6428 12.11 20.6235 12.2433 20.6228 12.3773C20.6228 12.6545 20.6932 13.1825 21.3576 13.8425C21.6788 14.1637 21.9252 14.3925 22.1936 14.6433C22.4136 14.8457 22.6469 15.0569 22.9417 15.3473C23.5137 15.8929 24.1164 16.5353 24.6576 17.3405C25.7796 19.0257 26.4 21.1333 26.4 24.2001C26.4 27.9533 25.0096 31.1521 22.8404 33.1145L23.122 33.4401C24.354 34.9537 25.0713 36.9161 25.5201 38.8521C26.4001 42.6801 26.4 47.2825 26.4 50.4901V50.6001C26.4 62.8629 24.7324 69.8193 22.8976 73.7969C21.9736 75.7989 20.9924 77.0749 20.1432 77.8757C19.798 78.2069 19.4173 78.4991 19.008 78.7469C18.8207 78.8597 18.625 78.9583 18.4228 79.0417C18.4228 79.0417 17.9256 79.2001 17.6 79.2001C17.2744 79.2001 16.7772 79.0417 16.7772 79.0417C16.5729 78.9632 16.3768 78.8644 16.192 78.7469C15.7828 78.4991 15.4021 78.2069 15.0568 77.8757C14.2076 77.0705 13.2264 75.7989 12.3024 73.7969C10.4676 69.8193 8.80005 62.8629 8.80005 50.6001V50.4901C8.80005 47.2781 8.80005 42.6801 9.68005 38.8521C10.1288 36.9161 10.846 34.9537 12.078 33.4401C12.166 33.3301 12.2628 33.2201 12.3596 33.1145C10.1904 31.1521 8.80005 27.9533 8.80005 24.2001C8.80005 22.7657 9.18285 21.0541 9.71085 19.4745C10.2388 17.8905 10.978 16.2537 11.8316 14.9337C12.848 13.2177 14.278 11.7789 15.3868 10.8109C15.9947 10.2763 16.6291 9.7726 17.2876 9.30172L17.4812 9.16972C17.8847 8.90077 18.3657 8.77266 18.8495 8.80528C19.3333 8.8379 19.7927 9.02944 20.1564 9.35012V9.35012Z" fill="#C3C2C2"/>
</svg>
