<svg width="18" height="18" viewBox="0 0 18 18" fill="none" xmlns="http://www.w3.org/2000/svg">
<g clip-path="url(#clip0_246_1115)">
<path d="M15.8208 7.4117C15.8208 12.3584 9.46077 16.5984 9.46077 16.5984C9.46077 16.5984 3.10077 12.3584 3.10077 7.4117C3.10077 5.72492 3.77084 4.10723 4.96357 2.9145C6.1563 1.72177 7.77399 1.0517 9.46077 1.0517C11.1475 1.0517 12.7652 1.72177 13.958 2.9145C15.1507 4.10723 15.8208 5.72492 15.8208 7.4117Z" stroke="#7E7777" stroke-width="2" stroke-linecap="round" stroke-linejoin="round"/>
<path d="M9.46076 9.53169C10.6316 9.53169 11.5808 8.58253 11.5808 7.41169C11.5808 6.24084 10.6316 5.29169 9.46076 5.29169C8.28992 5.29169 7.34076 6.24084 7.34076 7.41169C7.34076 8.58253 8.28992 9.53169 9.46076 9.53169Z" stroke="#7E7777" stroke-width="2" stroke-linecap="round" stroke-linejoin="round"/>
</g>
<defs>
<clipPath id="clip0_246_1115">
<rect width="16.96" height="16.96" fill="white" transform="translate(0.980774 0.345032)"/>
</clipPath>
</defs>
</svg>
