<svg width="58" height="88" viewBox="0 0 58 88" fill="none" xmlns="http://www.w3.org/2000/svg">
<g filter="url(#filter0_d_246_1350)">
<path d="M8 24C8 12.9543 16.9543 4 28 4H58V84H28C16.9543 84 8 75.0457 8 64V24Z" fill="white"/>
<path d="M49.9872 28.4936C49.9872 19.3844 42.6028 12 33.4936 12C24.3844 12 17 19.3844 17 28.4936L17 60.4812C17 69.5904 24.3844 76.9748 33.4936 76.9748C42.6028 76.9748 49.9872 69.5904 49.9872 60.4812V28.4936Z" fill="#F5F5F5"/>
<path d="M37.0005 30.1289C37.0005 30.845 36.7881 31.545 36.3903 32.1404C35.9925 32.7358 35.427 33.1999 34.7654 33.4739C34.1038 33.7479 33.3759 33.8196 32.6735 33.6799C31.9712 33.5402 31.3261 33.1954 30.8197 32.689C30.3134 32.1827 29.9685 31.5376 29.8288 30.8352C29.6891 30.1329 29.7608 29.4049 30.0349 28.7434C30.3089 28.0818 30.773 27.5163 31.3684 27.1185C31.9638 26.7206 32.6638 26.5083 33.3799 26.5083C34.3401 26.5083 35.261 26.8898 35.94 27.5687C36.619 28.2477 37.0005 29.1687 37.0005 30.1289V30.1289Z" stroke="black" stroke-width="1.99923" stroke-linecap="round" stroke-linejoin="round"/>
<path d="M33.3796 17.7478L33.3796 20.7466" stroke="black" stroke-width="1.99923" stroke-linecap="round" stroke-linejoin="round"/>
<path d="M33.3796 39.5103L33.3796 42.5091" stroke="black" stroke-width="1.99923" stroke-linecap="round" stroke-linejoin="round"/>
<path d="M24.54 22.5759L26.67 24.7059" stroke="black" stroke-width="1.99923" stroke-linecap="round" stroke-linejoin="round"/>
<path d="M38.8027 36.8394L40.9327 38.9694" stroke="black" stroke-width="1.99923" stroke-linecap="round" stroke-linejoin="round"/>
<path d="M20.9985 30.1289L23.9974 30.1289" stroke="black" stroke-width="1.99923" stroke-linecap="round" stroke-linejoin="round"/>
<path d="M42.761 30.1289L45.7598 30.1289" stroke="black" stroke-width="1.99923" stroke-linecap="round" stroke-linejoin="round"/>
<path d="M24.54 38.9694L26.67 36.8394" stroke="black" stroke-width="1.99923" stroke-linecap="round" stroke-linejoin="round"/>
<path d="M38.8027 24.7059L40.9327 22.5759" stroke="black" stroke-width="1.99923" stroke-linecap="round" stroke-linejoin="round"/>
</g>
<defs>
<filter id="filter0_d_246_1350" x="0" y="0" width="58" height="88" filterUnits="userSpaceOnUse" color-interpolation-filters="sRGB">
<feFlood flood-opacity="0" result="BackgroundImageFix"/>
<feColorMatrix in="SourceAlpha" type="matrix" values="0 0 0 0 0 0 0 0 0 0 0 0 0 0 0 0 0 0 127 0" result="hardAlpha"/>
<feOffset dx="-4"/>
<feGaussianBlur stdDeviation="2"/>
<feComposite in2="hardAlpha" operator="out"/>
<feColorMatrix type="matrix" values="0 0 0 0 0 0 0 0 0 0 0 0 0 0 0 0 0 0 0.05 0"/>
<feBlend mode="normal" in2="BackgroundImageFix" result="effect1_dropShadow_246_1350"/>
<feBlend mode="normal" in="SourceGraphic" in2="effect1_dropShadow_246_1350" result="shape"/>
</filter>
</defs>
</svg>
