<svg width="4" height="4" viewBox="0 0 4 4" fill="none" xmlns="http://www.w3.org/2000/svg">
<path d="M2.868 1.89586C2.868 2.12549 2.79991 2.34995 2.67234 2.54088C2.54476 2.73181 2.36344 2.88061 2.15129 2.96849C1.93915 3.05636 1.70571 3.07935 1.4805 3.03455C1.25529 2.98976 1.04842 2.87918 0.886048 2.71681C0.723679 2.55445 0.613104 2.34758 0.568307 2.12236C0.523509 1.89715 0.5465 1.66371 0.634373 1.45157C0.722247 1.23942 0.871056 1.0581 1.06198 0.930527C1.25291 0.802954 1.47737 0.734863 1.707 0.734863C2.01491 0.734863 2.31022 0.857183 2.52795 1.07491C2.74568 1.29264 2.868 1.58795 2.868 1.89586V1.89586Z" stroke="black" stroke-linecap="round" stroke-linejoin="round"/>
</svg>
