<svg width="16" height="18" viewBox="0 0 16 18" fill="none" xmlns="http://www.w3.org/2000/svg">
<path d="M15.544 12.0774L12.044 10.4998C11.8944 10.4328 11.7282 10.4187 11.5704 10.4597C11.4126 10.5007 11.2717 10.5945 11.169 10.727L9.619 12.7189C7.18597 11.5126 5.22798 9.45333 4.081 6.89442L5.975 5.26423C6.10123 5.15638 6.1906 5.00821 6.22958 4.84215C6.26856 4.67609 6.25501 4.5012 6.191 4.34396L4.691 0.66288C4.62081 0.493167 4.49646 0.354569 4.33944 0.271035C4.18241 0.1875 4.00258 0.164276 3.831 0.205374L0.581 0.994177C0.415776 1.03437 0.26838 1.13226 0.162862 1.27189C0.0573448 1.41152 -6.52211e-05 1.58464 5.56045e-08 1.763C5.56045e-08 5.8076 1.52767 9.68654 4.24695 12.5465C6.96623 15.4065 10.6544 17.0132 14.5 17.0132C14.6696 17.0133 14.8342 16.9529 14.9669 16.8419C15.0997 16.7309 15.1928 16.5759 15.231 16.4021L15.981 12.984C16.0198 12.8027 15.9973 12.6129 15.9174 12.4472C15.8374 12.2815 15.705 12.1504 15.543 12.0763L15.544 12.0774Z" fill="#3C3A3A"/>
</svg>
