<svg width="186" height="18" viewBox="0 0 186 18" fill="none" xmlns="http://www.w3.org/2000/svg">
<path d="M184.665 5.00952C184.579 4.66446 184.403 4.34833 184.155 4.09304C183.907 3.83775 183.596 3.65234 183.254 3.55552C181.178 3.32892 179.09 3.22673 177.001 3.24952C174.911 3.22451 172.822 3.33641 170.747 3.58452C170.405 3.68119 170.094 3.86653 169.846 4.12183C169.598 4.37713 169.422 4.69334 169.335 5.03852C169.106 6.30794 168.994 7.59567 169.001 8.88552C168.993 10.1851 169.105 11.4826 169.336 12.7615C169.431 13.0966 169.61 13.4016 169.858 13.6469C170.105 13.8921 170.411 14.0694 170.747 14.1615C172.822 14.4096 174.911 14.5215 177.001 14.4965C179.091 14.5215 181.18 14.4096 183.255 14.1615C183.597 14.0647 183.908 13.8793 184.156 13.624C184.404 13.3687 184.58 13.0526 184.666 12.7075C184.893 11.4477 185.005 10.1697 185.001 8.88952C185.009 7.58996 184.897 6.29244 184.666 5.01352L184.665 5.00952Z" stroke="black" stroke-linecap="round" stroke-linejoin="round"/>
<path d="M175.185 11.4516L179.699 8.88463L175.185 6.31763V11.4516Z" stroke="black" stroke-linecap="round" stroke-linejoin="round"/>
<path d="M124.293 6.05981C125.54 6.05981 126.735 6.55499 127.616 7.43641C128.498 8.31783 128.993 9.5133 128.993 10.7598V16.2468H125.864V10.7598C125.864 10.344 125.699 9.94513 125.405 9.65107C125.111 9.35701 124.712 9.19181 124.296 9.19181C123.88 9.19181 123.481 9.35701 123.187 9.65107C122.893 9.94513 122.728 10.344 122.728 10.7598V16.2468H119.593V10.7598C119.593 9.5133 120.088 8.31783 120.97 7.43641C121.851 6.55499 123.047 6.05981 124.293 6.05981V6.05981Z" stroke="black" stroke-linecap="round" stroke-linejoin="round"/>
<path d="M113 6.84375H116.136V16.2507H113V6.84375Z" stroke="black" stroke-linecap="round" stroke-linejoin="round"/>
<path d="M116.136 2.61878C116.136 2.9289 116.044 3.23206 115.872 3.48992C115.699 3.74777 115.455 3.94875 115.168 4.06742C114.882 4.1861 114.566 4.21715 114.262 4.15665C113.958 4.09615 113.679 3.94681 113.459 3.72752C113.24 3.50824 113.091 3.22885 113.03 2.92468C112.97 2.62052 113.001 2.30525 113.119 2.01873C113.238 1.73222 113.439 1.48733 113.697 1.31504C113.955 1.14274 114.258 1.05078 114.568 1.05078C114.774 1.05078 114.978 1.09134 115.168 1.17014C115.358 1.24894 115.531 1.36444 115.677 1.51004C115.822 1.65564 115.938 1.8285 116.017 2.01873C116.095 2.20897 116.136 2.41287 116.136 2.61878V2.61878Z" stroke="black" stroke-linecap="round" stroke-linejoin="round"/>
<path d="M73 2.00811C72.3031 2.49774 71.5319 2.87187 70.716 3.11611C70.2777 2.61215 69.6952 2.25507 69.0472 2.09321C68.3992 1.93136 67.7172 1.97255 67.0934 2.21121C66.4696 2.44988 65.9343 2.87448 65.5598 3.42752C65.1854 3.98056 64.99 4.63531 65 5.30311V6.03011C63.722 6.0631 62.4556 5.77952 61.3137 5.20463C60.1717 4.62975 59.1897 3.78139 58.455 2.73511C58.455 2.73511 55.545 9.28111 62.091 12.1901C60.5931 13.2067 58.8088 13.7163 57 13.6441C63.545 17.2801 71.545 13.6441 71.545 5.28011C71.5442 5.07875 71.5247 4.8779 71.487 4.68011C72.2298 3.94732 72.7537 3.02205 73 2.00811V2.00811Z" stroke="black" stroke-linecap="round" stroke-linejoin="round"/>
<path d="M5 1H13C14.0609 1 15.0783 1.42143 15.8284 2.17157C16.5786 2.92172 17 3.93913 17 5V13C17 14.0609 16.5786 15.0783 15.8284 15.8284C15.0783 16.5786 14.0609 17 13 17H5C3.93913 17 2.92172 16.5786 2.17157 15.8284C1.42143 15.0783 1 14.0609 1 13V5C1 3.93913 1.42143 2.92172 2.17157 2.17157C2.92172 1.42143 3.93913 1 5 1V1Z" stroke="black" stroke-linecap="round" stroke-linejoin="round"/>
<path d="M12.986 8.38397C13.1094 9.21622 12.9673 10.0662 12.5798 10.813C12.1923 11.5598 11.5792 12.1654 10.8277 12.5436C10.0761 12.9219 9.22448 13.0536 8.39382 12.9199C7.56316 12.7862 6.7958 12.3941 6.20087 11.7991C5.60595 11.2042 5.21377 10.4368 5.0801 9.60619C4.94644 8.77553 5.0781 7.92387 5.45636 7.17235C5.83462 6.42083 6.44022 5.80771 7.18702 5.42021C7.93382 5.03272 8.78379 4.89056 9.61604 5.01397C10.465 5.13986 11.2509 5.53544 11.8577 6.14228C12.4646 6.74912 12.8601 7.53505 12.986 8.38397V8.38397Z" stroke="black" stroke-linecap="round" stroke-linejoin="round"/>
</svg>
