<svg width="88" height="88" viewBox="0 0 88 88" fill="none" xmlns="http://www.w3.org/2000/svg">
<path d="M88 42.8598C88 37.0298 80.6997 31.5041 69.5053 28.0794C72.0903 16.6724 70.9427 7.59375 65.8827 4.68608C64.6566 3.99939 63.2689 3.65374 61.864 3.68508V7.68175C62.689 7.68175 63.3527 7.84675 63.91 8.15108C66.3483 9.55175 67.408 14.8757 66.583 21.7288C66.385 23.4154 66.0623 25.1901 65.6663 27.0014C61.9177 26.0981 58.113 25.4452 54.2777 25.0471C51.9928 21.8948 49.5 18.8986 46.816 16.0784C52.6643 10.6444 58.1533 7.66708 61.886 7.66708V3.66675C56.9507 3.66675 50.4937 7.18308 43.9633 13.2807C37.4367 7.22342 30.976 3.74008 26.0443 3.74008V7.73675C29.7587 7.73675 35.266 10.6994 41.1143 16.0967C38.6027 18.7367 36.091 21.7287 33.704 25.0471C29.8607 25.4408 26.0493 26.0999 22.297 27.0197C21.9004 25.303 21.5884 23.5678 21.362 21.8204C20.5187 14.9637 21.56 9.63975 23.9837 8.22442C24.519 7.90175 25.2193 7.75508 26.0443 7.75508V3.75841C24.541 3.75841 23.1733 4.08108 21.9927 4.75941C16.951 7.66708 15.8217 16.7237 18.4213 28.0978C7.26367 31.5444 0 37.0481 0 42.8598C0 48.6898 7.30033 54.2154 18.4947 57.6364C15.9097 69.0471 17.0573 78.1258 22.1173 81.0298C23.2833 81.7118 24.6473 82.0344 26.1507 82.0344C31.086 82.0344 37.543 78.5181 44.0733 72.4204C50.6 78.4814 57.057 81.9611 61.9923 81.9611C63.408 81.991 64.8063 81.6443 66.044 80.9564C71.0857 78.0524 72.215 68.9958 69.6153 57.6218C80.7363 54.1971 88 48.6714 88 42.8598ZM64.6433 30.8954C63.9466 33.2929 63.1391 35.6568 62.2233 37.9794C60.7243 35.0635 59.0783 32.2255 57.2917 29.4764C59.84 29.8541 62.2967 30.3197 64.647 30.8954H64.6433ZM56.43 49.9988C55.087 52.3435 53.6447 54.6299 52.107 56.8518C46.7253 57.3261 41.3125 57.3322 35.9297 56.8701C32.8421 52.4597 30.142 47.7906 27.8593 42.9148C30.1385 38.0275 32.8272 33.3418 35.8967 28.9081C41.2771 28.4328 46.6886 28.4254 52.0703 28.8861C53.559 31.0201 55.0147 33.3008 56.4117 35.7061C57.7757 38.0528 59.015 40.4361 60.1443 42.8414C59.0025 45.2759 57.7634 47.6636 56.43 49.9988V49.9988ZM62.2233 47.6668C63.1913 50.0684 64.02 52.4738 64.6983 54.8058C62.3517 55.3814 59.873 55.8654 57.31 56.2394C59.0892 53.4653 60.729 50.6042 62.2233 47.6668V47.6668ZM44.0367 66.8068C42.3683 65.0834 40.7 63.1658 39.05 61.0648C40.6633 61.1381 42.3133 61.1931 43.9817 61.1931C45.6683 61.1931 47.3367 61.1564 48.9683 61.0648C47.355 63.1658 45.6867 65.0834 44.0367 66.8068ZM30.69 56.2394C28.2177 55.8812 25.7633 55.4089 23.3347 54.8241C23.9983 52.5104 24.8233 50.1234 25.7547 47.7401C26.4917 49.1701 27.2653 50.6074 28.1087 52.0448C28.952 53.4784 29.81 54.8791 30.69 56.2394ZM43.945 18.9127C45.6133 20.6361 47.2817 22.5537 48.9317 24.6547C47.3183 24.5814 45.6683 24.5264 44 24.5264C42.3133 24.5264 40.645 24.5631 39.0133 24.6547C40.6267 22.5537 42.295 20.6361 43.945 18.9127ZM30.6717 29.4801C28.8929 32.2482 27.253 35.1032 25.7583 38.0344C24.8168 35.6968 23.9908 33.3142 23.2833 30.8954C25.63 30.3381 28.1087 29.8541 30.6717 29.4801ZM14.4393 51.9348C8.08867 49.2288 3.982 45.6758 3.982 42.8598C3.982 40.0438 8.08867 36.4724 14.4393 33.7847C15.9793 33.1211 17.666 32.5271 19.4077 31.9734C20.4307 35.4861 21.7763 39.1454 23.441 42.8964C21.8693 46.4244 20.5401 50.0555 19.4627 53.7644C17.7593 53.237 16.0829 52.6264 14.4393 51.9348V51.9348ZM24.09 77.5648C21.6517 76.1714 20.592 70.8401 21.417 63.9908C21.615 62.3041 21.9377 60.5258 22.3337 58.7144C25.8463 59.5761 29.6853 60.2398 33.7223 60.6724C36.0073 63.8246 38.5001 66.8208 41.184 69.6411C35.3357 75.0751 29.8467 78.0524 26.114 78.0524C25.4098 78.0601 24.7146 77.8939 24.09 77.5684V77.5648ZM66.638 63.8991C67.4813 70.7521 66.44 76.0798 64.0163 77.4951C63.481 77.8178 62.7807 77.9608 61.9557 77.9608C58.2413 77.9608 52.734 75.0018 46.8857 69.6008C49.5584 66.7923 52.0344 63.803 54.296 60.6541C58.1393 60.2604 61.9507 59.6013 65.703 58.6814C66.1173 60.4928 66.4363 62.2308 66.638 63.8991V63.8991ZM73.5423 51.9348C72.0023 52.5984 70.3157 53.1924 68.574 53.7461C67.4776 50.0182 66.13 46.3689 64.5407 42.8231C66.1907 39.0941 67.5143 35.4531 68.519 31.9551C70.2278 32.4842 71.9102 33.0948 73.5607 33.7847C79.9113 36.4907 84.018 40.0438 84.018 42.8598C83.9997 45.6758 79.893 49.2471 73.5423 51.9348V51.9348Z" fill="#C3C2C2"/>
<path d="M43.9816 51.0585C46.156 51.0585 48.2414 50.1947 49.779 48.6571C51.3165 47.1196 52.1803 45.0342 52.1803 42.8598C52.1803 40.6854 51.3165 38.6 49.779 37.0625C48.2414 35.5249 46.156 34.6611 43.9816 34.6611C41.8072 34.6611 39.7218 35.5249 38.1843 37.0625C36.6467 38.6 35.783 40.6854 35.783 42.8598C35.783 45.0342 36.6467 47.1196 38.1843 48.6571C39.7218 50.1947 41.8072 51.0585 43.9816 51.0585V51.0585Z" fill="#C3C2C2"/>
</svg>
