<svg width="35" height="35" viewBox="0 0 35 35" fill="none" xmlns="http://www.w3.org/2000/svg">
<path d="M35 17.0465C35 14.7278 32.0965 12.53 27.6442 11.168C28.6723 6.63108 28.2158 3.02025 26.2033 1.86379C25.7157 1.59067 25.1638 1.4532 24.605 1.46567V3.05525C24.9331 3.05525 25.1971 3.12087 25.4188 3.24192C26.3885 3.799 26.81 5.9165 26.4819 8.64213C26.4031 9.31296 26.2748 10.0188 26.1173 10.7392C24.6263 10.3799 23.1131 10.1203 21.5877 9.96192C20.679 8.70817 19.6875 7.5165 18.62 6.39483C20.946 4.23358 23.1292 3.04942 24.6138 3.04942V1.45837C22.6508 1.45837 20.0827 2.85692 17.4854 5.28212C14.8896 2.87296 12.32 1.48754 10.3585 1.48754V3.07712C11.8358 3.07712 14.0263 4.25546 16.3523 6.40212C15.3533 7.45213 14.3544 8.64213 13.405 9.96192C11.8764 10.1185 10.3605 10.3807 8.86812 10.7465C8.7104 10.0637 8.5863 9.37356 8.49625 8.67858C8.16083 5.9515 8.575 3.834 9.53896 3.27108C9.75187 3.14275 10.0304 3.08442 10.3585 3.08442V1.49483C9.76063 1.49483 9.21667 1.62317 8.74708 1.89296C6.74188 3.04942 6.29271 6.6515 7.32667 11.1753C2.88896 12.5461 0 14.735 0 17.0465C0 19.3653 2.90354 21.563 7.35583 22.9236C6.32771 27.4619 6.78417 31.0728 8.79667 32.2278C9.26042 32.499 9.80292 32.6273 10.4008 32.6273C12.3638 32.6273 14.9319 31.2288 17.5292 28.8036C20.125 31.2142 22.6931 32.5982 24.656 32.5982C25.2191 32.6101 25.7752 32.4722 26.2675 32.1986C28.2727 31.0436 28.7219 27.4415 27.6879 22.9178C32.111 21.5557 35 19.358 35 17.0465ZM25.7104 12.288C25.4333 13.2415 25.1121 14.1817 24.7479 15.1055C24.1517 13.9457 23.497 12.817 22.7865 11.7236C23.8 11.8738 24.7771 12.059 25.7119 12.288H25.7104ZM22.4438 19.8859C21.9096 20.8184 21.336 21.7278 20.7244 22.6115C18.5839 22.8002 16.4311 22.8026 14.2902 22.6188C13.0622 20.8647 11.9883 19.0076 11.0804 17.0684C11.9869 15.1246 13.0563 13.261 14.2771 11.4975C16.417 11.3085 18.5693 11.3056 20.7098 11.4888C21.3019 12.3375 21.8808 13.2446 22.4365 14.2013C22.979 15.1346 23.4719 16.0825 23.921 17.0392C23.4669 18.0075 22.9741 18.9571 22.4438 19.8859ZM24.7479 18.9584C25.1329 19.9136 25.4625 20.8703 25.7323 21.7978C24.799 22.0267 23.8131 22.2192 22.7938 22.368C23.5014 21.2646 24.1536 20.1267 24.7479 18.9584ZM17.5146 26.5709C16.851 25.8855 16.1875 25.1228 15.5312 24.2871C16.1729 24.3163 16.8292 24.3382 17.4927 24.3382C18.1635 24.3382 18.8271 24.3236 19.476 24.2871C18.8344 25.1228 18.1708 25.8855 17.5146 26.5709ZM12.2063 22.368C11.223 22.2255 10.2468 22.0376 9.28083 21.805C9.54479 20.8848 9.87292 19.9355 10.2433 18.9875C10.5365 19.5563 10.8442 20.128 11.1796 20.6996C11.515 21.2698 11.8562 21.8269 12.2063 22.368ZM17.4781 7.52213C18.1417 8.20754 18.8052 8.97025 19.4615 9.80588C18.8198 9.77671 18.1635 9.75483 17.5 9.75483C16.8292 9.75483 16.1656 9.76942 15.5167 9.80588C16.1583 8.97025 16.8219 8.20754 17.4781 7.52213ZM12.199 11.725C11.4915 12.826 10.8393 13.9615 10.2448 15.1273C9.87031 14.1976 9.54179 13.25 9.26042 12.288C10.1938 12.0663 11.1796 11.8738 12.199 11.725ZM5.74292 20.6559C3.21708 19.5796 1.58375 18.1665 1.58375 17.0465C1.58375 15.9265 3.21708 14.5061 5.74292 13.4371C6.35542 13.1732 7.02625 12.9369 7.71896 12.7167C8.12583 14.1138 8.66104 15.5692 9.32313 17.0611C8.69803 18.4643 8.16938 19.9085 7.74083 21.3836C7.06337 21.1738 6.39659 20.931 5.74292 20.6559ZM9.58125 30.8496C8.61146 30.2955 8.19 28.175 8.51813 25.4509C8.59688 24.78 8.72521 24.0728 8.88271 23.3523C10.2798 23.695 11.8067 23.959 13.4123 24.1311C14.3211 25.3848 15.3125 26.5765 16.38 27.6982C14.054 29.8594 11.8708 31.0436 10.3863 31.0436C10.1062 31.0466 9.82965 30.9805 9.58125 30.8511V30.8496ZM26.5037 25.4144C26.8392 28.14 26.425 30.259 25.461 30.8219C25.2481 30.9503 24.9696 31.0071 24.6415 31.0071C23.1642 31.0071 20.9738 29.8303 18.6477 27.6821C19.7107 26.5651 20.6955 25.3762 21.595 24.1238C23.1236 23.9672 24.6395 23.7051 26.1319 23.3392C26.2967 24.0596 26.4235 24.7509 26.5037 25.4144ZM29.2498 20.6559C28.6373 20.9198 27.9665 21.1561 27.2738 21.3763C26.8377 19.8936 26.3017 18.4422 25.6696 17.0319C26.3258 15.5488 26.8523 14.1007 27.2519 12.7094C27.9315 12.9199 28.6007 13.1627 29.2571 13.4371C31.7829 14.5134 33.4163 15.9265 33.4163 17.0465C33.409 18.1665 31.7756 19.5869 29.2498 20.6559Z" fill="#C3C2C2"/>
<path d="M17.4928 20.3073C18.3576 20.3073 19.187 19.9638 19.7985 19.3522C20.41 18.7407 20.7536 17.9113 20.7536 17.0465C20.7536 16.1817 20.41 15.3522 19.7985 14.7407C19.187 14.1292 18.3576 13.7856 17.4928 13.7856C16.6279 13.7856 15.7985 14.1292 15.187 14.7407C14.5755 15.3522 14.2319 16.1817 14.2319 17.0465C14.2319 17.9113 14.5755 18.7407 15.187 19.3522C15.7985 19.9638 16.6279 20.3073 17.4928 20.3073Z" fill="#C3C2C2"/>
</svg>
