<svg width="31" height="31" viewBox="0 0 31 31" fill="none" xmlns="http://www.w3.org/2000/svg">
<g clip-path="url(#clip0_246_1344)">
<path d="M30.1199 14.8242C30.1199 12.8579 27.6577 10.9942 23.8822 9.8392C24.754 5.99193 24.367 2.92994 22.6604 1.94926C22.2468 1.71766 21.7788 1.60108 21.305 1.61165V2.95962C21.5832 2.95962 21.8071 3.01527 21.995 3.11791C22.8174 3.59032 23.1748 5.38596 22.8966 7.69729C22.8298 8.26616 22.721 8.8647 22.5874 9.47562C21.3231 9.17095 20.0399 8.95075 18.7463 8.81647C17.9757 7.7533 17.135 6.74276 16.2297 5.79159C18.2022 3.95885 20.0535 2.95467 21.3124 2.95467V1.60547C19.6478 1.60547 17.4701 2.79143 15.2676 4.84801C13.0663 2.80504 10.8873 1.6302 9.22398 1.6302V2.97817C10.4767 2.97817 12.3342 3.9774 14.3067 5.79777C13.4596 6.68817 12.6125 7.69729 11.8074 8.81647C10.5111 8.94926 9.22566 9.17156 7.96011 9.4818C7.82636 8.90278 7.72112 8.31755 7.64476 7.72821C7.36033 5.41564 7.71154 3.62 8.52898 3.14265C8.70953 3.03382 8.94573 2.98435 9.22398 2.98435V1.63639C8.71695 1.63639 8.25567 1.74521 7.85747 1.974C6.15705 2.95467 5.77616 6.00924 6.65296 9.84538C2.88978 11.0078 0.439941 12.8641 0.439941 14.8242C0.439941 16.7905 2.90214 18.6542 6.67769 19.808C5.80584 23.6565 6.19291 26.7185 7.89951 27.6979C8.29277 27.9279 8.75282 28.0367 9.25985 28.0367C10.9244 28.0367 13.1022 26.8508 15.3047 24.7942C17.5059 26.8384 19.6837 28.012 21.3483 28.012C21.8257 28.0221 22.2973 27.9052 22.7148 27.6732C24.4152 26.6937 24.7961 23.6392 23.9193 19.803C27.6701 18.648 30.1199 16.7843 30.1199 14.8242ZM22.2424 10.789C22.0074 11.5976 21.735 12.3948 21.4262 13.1782C20.9206 12.1947 20.3654 11.2376 19.7629 10.3104C20.6223 10.4377 21.4509 10.5948 22.2436 10.789H22.2424ZM19.4722 17.232C19.0193 18.0228 18.5328 18.7939 18.0142 19.5433C16.1991 19.7033 14.3735 19.7054 12.558 19.5495C11.5167 18.062 10.606 16.4872 9.83613 14.8428C10.6048 13.1944 11.5117 11.6141 12.5469 10.1187C14.3616 9.95837 16.1867 9.95589 18.0018 10.1113C18.5039 10.831 18.9949 11.6002 19.4661 12.4115C19.9261 13.2029 20.3441 14.0068 20.725 14.818C20.3399 15.6391 19.9219 16.4444 19.4722 17.232ZM21.4262 16.4455C21.7527 17.2555 22.0321 18.0667 22.2609 18.8533C21.4695 19.0474 20.6335 19.2107 19.769 19.3368C20.3691 18.4012 20.9222 17.4362 21.4262 16.4455ZM15.2923 22.9009C14.7296 22.3196 14.1669 21.6729 13.6104 20.9643C14.1546 20.989 14.7111 21.0075 15.2738 21.0075C15.8426 21.0075 16.4053 20.9952 16.9556 20.9643C16.4115 21.6729 15.8488 22.3196 15.2923 22.9009ZM10.7908 19.3368C9.95701 19.216 9.12921 19.0567 8.31009 18.8594C8.53393 18.0791 8.81217 17.274 9.12629 16.4702C9.37486 16.9525 9.63579 17.4373 9.92023 17.9221C10.2047 18.4056 10.494 18.878 10.7908 19.3368ZM15.2614 6.74753C15.8241 7.32876 16.3868 7.97554 16.9433 8.68415C16.3991 8.65942 15.8426 8.64087 15.2799 8.64087C14.7111 8.64087 14.1484 8.65323 13.5981 8.68415C14.1422 7.97554 14.7049 7.32876 15.2614 6.74753ZM10.7847 10.3116C10.1847 11.2452 9.63165 12.2081 9.12753 13.1967C8.80997 12.4083 8.53138 11.6048 8.29277 10.789C9.08424 10.601 9.92023 10.4377 10.7847 10.3116ZM5.30993 17.885C3.16803 16.9723 1.78296 15.774 1.78296 14.8242C1.78296 13.8744 3.16803 12.6699 5.30993 11.7635C5.82933 11.5396 6.3982 11.3393 6.98562 11.1525C7.33065 12.3373 7.7845 13.5715 8.34595 14.8366C7.81587 16.0265 7.36757 17.2511 7.00417 18.502C6.42968 18.3242 5.86425 18.1182 5.30993 17.885ZM8.56484 26.5293C7.74246 26.0593 7.38506 24.2612 7.66331 21.9511C7.73009 21.3822 7.83892 20.7825 7.97248 20.1715C9.1572 20.4622 10.452 20.686 11.8136 20.8319C12.5842 21.8951 13.425 22.9056 14.3302 23.8568C12.3577 25.6896 10.5064 26.6937 9.24748 26.6937C9.00997 26.6963 8.77549 26.6403 8.56484 26.5305V26.5293ZM22.9151 21.9202C23.1996 24.2315 22.8483 26.0284 22.0309 26.5058C21.8504 26.6146 21.6141 26.6628 21.3359 26.6628C20.0832 26.6628 18.2257 25.6648 16.2532 23.8432C17.1546 22.896 17.9897 21.8878 18.7525 20.8257C20.0487 20.693 21.3342 20.4707 22.5998 20.1604C22.7395 20.7713 22.8471 21.3575 22.9151 21.9202ZM25.2438 17.885C24.7244 18.1088 24.1555 18.3091 23.5681 18.4959C23.1983 17.2386 22.7438 16.0077 22.2077 14.8118C22.7642 13.5541 23.2107 12.3261 23.5495 11.1464C24.1259 11.3248 24.6933 11.5308 25.2499 11.7635C27.3919 12.6761 28.7769 13.8744 28.7769 14.8242C28.7707 15.774 27.3857 16.9785 25.2438 17.885Z" fill="#C3C2C2"/>
<path d="M15.2737 17.5893C16.0071 17.5893 16.7104 17.298 17.229 16.7794C17.7476 16.2609 18.0389 15.5575 18.0389 14.8241C18.0389 14.0908 17.7476 13.3874 17.229 12.8689C16.7104 12.3503 16.0071 12.059 15.2737 12.059C14.5404 12.059 13.837 12.3503 13.3184 12.8689C12.7999 13.3874 12.5085 14.0908 12.5085 14.8241C12.5085 15.5575 12.7999 16.2609 13.3184 16.7794C13.837 17.298 14.5404 17.5893 15.2737 17.5893Z" fill="#C3C2C2"/>
</g>
<defs>
<clipPath id="clip0_246_1344">
<rect width="29.68" height="29.68" fill="white" transform="translate(0.439941 0.368774)"/>
</clipPath>
</defs>
</svg>
