<svg width="88" height="88" viewBox="0 0 88 88" fill="none" xmlns="http://www.w3.org/2000/svg">
<path d="M27.0417 61.5303L31.6251 55.803L16.8704 44L31.6251 32.197L27.0417 26.4697L8.70839 41.1363C8.27882 41.4799 7.93204 41.9156 7.69372 42.4113C7.45541 42.907 7.33167 43.45 7.33167 44C7.33167 44.55 7.45541 45.093 7.69372 45.5887C7.93204 46.0844 8.27882 46.5202 8.70839 46.8637L27.0417 61.5303ZM60.9584 26.4697L56.3751 32.197L71.1297 44L56.3751 55.803L60.9584 61.5303L79.2917 46.8637C79.7213 46.5202 80.0681 46.0844 80.3064 45.5887C80.5447 45.093 80.6685 44.55 80.6685 44C80.6685 43.45 80.5447 42.907 80.3064 42.4113C80.0681 41.9156 79.7213 41.4799 79.2917 41.1363L60.9584 26.4697ZM54.9121 11.792L40.2454 77.792L33.0844 76.2007L47.7511 10.2007L54.9121 11.792Z" fill="#575757"/>
</svg>
