<svg width="30" height="30" viewBox="0 0 30 30" fill="none" xmlns="http://www.w3.org/2000/svg">
<path d="M9.29987 20.6804L10.8015 18.8039L5.96737 14.9368L10.8015 11.0697L9.29987 9.19323L3.2932 13.9986C3.15245 14.1111 3.03884 14.2539 2.96075 14.4163C2.88267 14.5787 2.84213 14.7566 2.84213 14.9368C2.84213 15.117 2.88267 15.2949 2.96075 15.4573C3.03884 15.6197 3.15245 15.7625 3.2932 15.875L9.29987 20.6804ZM20.4122 9.19323L18.9105 11.0697L23.7447 14.9368L18.9105 18.8039L20.4122 20.6804L26.4189 15.875C26.5596 15.7625 26.6732 15.6197 26.7513 15.4573C26.8294 15.2949 26.8699 15.117 26.8699 14.9368C26.8699 14.7566 26.8294 14.5787 26.7513 14.4163C26.6732 14.2539 26.5596 14.1111 26.4189 13.9986L20.4122 9.19323ZM18.4312 4.38429L13.6259 26.0083L11.2797 25.4869L16.085 3.86292L18.4312 4.38429Z" fill="#C3C2C2"/>
</svg>
