<svg width="29" height="29" viewBox="0 0 29 29" fill="none" xmlns="http://www.w3.org/2000/svg">
<path d="M20.2396 27.7917H8.15623C7.51529 27.7917 6.9006 27.5371 6.44739 27.0839C5.99418 26.6307 5.73956 26.016 5.73956 25.375V3.62504C5.73956 2.9841 5.99418 2.36941 6.44739 1.9162C6.9006 1.46299 7.51529 1.20837 8.15623 1.20837H20.2396C20.8805 1.20837 21.4952 1.46299 21.9484 1.9162C22.4016 2.36941 22.6562 2.9841 22.6562 3.62504V25.375C22.6562 26.016 22.4016 26.6307 21.9484 27.0839C21.4952 27.5371 20.8805 27.7917 20.2396 27.7917ZM8.15623 3.62504V25.375H20.2396V3.62504H8.15623ZM14.1979 24.1667C13.8774 24.1667 13.5701 24.0394 13.3435 23.8128C13.1169 23.5862 12.9896 23.2788 12.9896 22.9584C12.9896 22.6379 13.1169 22.3306 13.3435 22.104C13.5701 21.8773 13.8774 21.75 14.1979 21.75C14.5184 21.75 14.8257 21.8773 15.0523 22.104C15.2789 22.3306 15.4062 22.6379 15.4062 22.9584C15.4062 23.2788 15.2789 23.5862 15.0523 23.8128C14.8257 24.0394 14.5184 24.1667 14.1979 24.1667Z" fill="#C3C2C2"/>
</svg>
