<svg width="25" height="25" viewBox="0 0 25 25" fill="none" xmlns="http://www.w3.org/2000/svg">
<path d="M17.2992 23.5732H7.05251C6.50899 23.5732 5.98773 23.3573 5.60341 22.973C5.21909 22.5886 5.00317 22.0674 5.00317 21.5239V3.07985C5.00317 2.53633 5.21909 2.01508 5.60341 1.63075C5.98773 1.24643 6.50899 1.03052 7.05251 1.03052H17.2992C17.8427 1.03052 18.3639 1.24643 18.7483 1.63075C19.1326 2.01508 19.3485 2.53633 19.3485 3.07985V21.5239C19.3485 22.0674 19.1326 22.5886 18.7483 22.973C18.3639 23.3573 17.8427 23.5732 17.2992 23.5732ZM7.05251 3.07985V21.5239H17.2992V3.07985H7.05251ZM12.1758 20.4992C11.9041 20.4992 11.6435 20.3912 11.4513 20.1991C11.2591 20.0069 11.1512 19.7463 11.1512 19.4745C11.1512 19.2028 11.2591 18.9421 11.4513 18.75C11.6435 18.5578 11.9041 18.4499 12.1758 18.4499C12.4476 18.4499 12.7082 18.5578 12.9004 18.75C13.0926 18.9421 13.2005 19.2028 13.2005 19.4745C13.2005 19.7463 13.0926 20.0069 12.9004 20.1991C12.7082 20.3912 12.4476 20.4992 12.1758 20.4992Z" fill="#C3C2C2"/>
</svg>
