<svg width="88" height="88" viewBox="0 0 88 88" fill="none" xmlns="http://www.w3.org/2000/svg">
<path d="M61.4167 84.3334H24.75C22.8051 84.3334 20.9398 83.5608 19.5646 82.1855C18.1893 80.8103 17.4167 78.945 17.4167 77.0001V11.0001C17.4167 9.05516 18.1893 7.1899 19.5646 5.81463C20.9398 4.43936 22.8051 3.66675 24.75 3.66675H61.4167C63.3616 3.66675 65.2269 4.43936 66.6021 5.81463C67.9774 7.1899 68.75 9.05516 68.75 11.0001V77.0001C68.75 78.945 67.9774 80.8103 66.6021 82.1855C65.2269 83.5608 63.3616 84.3334 61.4167 84.3334ZM24.75 11.0001V77.0001H61.4167V11.0001H24.75ZM43.0834 73.3334C42.1109 73.3334 41.1783 72.9471 40.4906 72.2595C39.803 71.5718 39.4167 70.6392 39.4167 69.6667C39.4167 68.6943 39.803 67.7617 40.4906 67.074C41.1783 66.3864 42.1109 66.0001 43.0834 66.0001C44.0558 66.0001 44.9884 66.3864 45.6761 67.074C46.3637 67.7617 46.75 68.6943 46.75 69.6667C46.75 70.6392 46.3637 71.5718 45.6761 72.2595C44.9884 72.9471 44.0558 73.3334 43.0834 73.3334Z" fill="white"/>
</svg>
