<svg width="16" height="13" viewBox="0 0 16 13" fill="none" xmlns="http://www.w3.org/2000/svg">
<path d="M14.5 0.271484H1.5C1.10218 0.271484 0.720644 0.437695 0.43934 0.733553C0.158035 1.02941 0 1.43068 0 1.84909L0 11.3147C0 11.7331 0.158035 12.1344 0.43934 12.4303C0.720644 12.7261 1.10218 12.8923 1.5 12.8923H14.5C14.8978 12.8923 15.2794 12.7261 15.5607 12.4303C15.842 12.1344 16 11.7331 16 11.3147V1.84909C16 1.43068 15.842 1.02941 15.5607 0.733553C15.2794 0.437695 14.8978 0.271484 14.5 0.271484V0.271484ZM14.5 1.84909V3.19006C13.8 3.7906 12.682 4.72349 10.294 6.69023C9.768 7.12565 8.725 8.17213 8 8.16267C7.275 8.17529 6.232 7.12881 5.706 6.69023C3.318 4.72349 2.2 3.7906 1.5 3.19006V1.84909H14.5ZM1.5 11.3147V5.21465C2.216 5.81414 3.232 6.65658 4.779 7.93129C5.462 8.49607 6.659 9.74448 8 9.73712C9.341 9.72976 10.516 8.515 11.22 7.93129C12.768 6.65658 13.784 5.81414 14.5 5.21465V11.3147H1.5Z" fill="#3C3A3A"/>
</svg>
