<svg width="964" height="780" viewBox="0 0 964 780" fill="none" xmlns="http://www.w3.org/2000/svg">
<path opacity="0.2" d="M855.499 89L503.499 402.5" stroke="black"/>
<path opacity="0.2" d="M380.499 96.5L498.499 397" stroke="black"/>
<path opacity="0.2" d="M228.499 317.5L500.999 402.5" stroke="black"/>
<path opacity="0.2" d="M74.499 557.5L500.999 403.5" stroke="black"/>
<path opacity="0.2" d="M351.999 685L503.499 402.5" stroke="black"/>
<path opacity="0.2" d="M653.499 641.5L499.499 400" stroke="black"/>
<path opacity="0.2" d="M892.499 703L504.499 400" stroke="black"/>
<path opacity="0.2" d="M821.999 382L508.499 402.5" stroke="black"/>
<path opacity="0.2" d="M634.499 153L505.999 402.5" stroke="black"/>
<circle cx="371.999" cy="66" r="66" fill="#C4C4C4"/>
<circle cx="853.999" cy="89" r="40" fill="#C4C4C4"/>
<circle cx="631.499" cy="156.5" r="25.5" fill="#C4C4C4"/>
<circle cx="895.499" cy="711.5" r="68.5" fill="#C4C4C4"/>
<circle cx="73.1245" cy="554.125" r="51.721" transform="rotate(136.342 73.1245 554.125)" fill="#C4C4C4"/>
<circle cx="652.999" cy="643" r="30" fill="#C4C4C4"/>
<circle cx="228.412" cy="313.415" r="30" transform="rotate(136.342 228.412 313.415)" fill="#C4C4C4"/>
<circle cx="810.999" cy="384" r="42" fill="#C4C4C4"/>
<circle cx="347.376" cy="686.381" r="42" transform="rotate(136.342 347.376 686.381)" fill="#C4C4C4"/>
<circle cx="503.999" cy="404" r="20" fill="#C4C4C4"/>
</svg>
