<svg width="12" height="18" viewBox="0 0 12 18" fill="none" xmlns="http://www.w3.org/2000/svg">
<path d="M5.383 17.3797C0.843 10.4571 0 9.74616 0 7.20201C0 5.52839 0.632141 3.92331 1.75736 2.73988C2.88258 1.55645 4.4087 0.891602 6 0.891602C7.5913 0.891602 9.11742 1.55645 10.2426 2.73988C11.3679 3.92331 12 5.52839 12 7.20201C12 9.74616 11.157 10.4571 6.617 17.3797C6.54798 17.4844 6.45584 17.5701 6.34847 17.6292C6.2411 17.6883 6.1217 17.7192 6.0005 17.7192C5.8793 17.7192 5.7599 17.6883 5.65253 17.6292C5.54516 17.5701 5.45302 17.4844 5.384 17.3797H5.383ZM6 9.83135C6.49445 9.83135 6.9778 9.67714 7.38893 9.38823C7.80005 9.09931 8.12048 8.68866 8.3097 8.20821C8.49892 7.72777 8.54843 7.19909 8.45196 6.68905C8.3555 6.17901 8.1174 5.71051 7.76777 5.34279C7.41814 4.97507 6.97268 4.72465 6.48773 4.6232C6.00277 4.52174 5.50011 4.57381 5.04329 4.77282C4.58648 4.97183 4.19603 5.30884 3.92133 5.74123C3.64662 6.17362 3.5 6.68198 3.5 7.20201C3.5 7.89935 3.76339 8.56814 4.23223 9.06123C4.70107 9.55433 5.33696 9.83135 6 9.83135V9.83135Z" fill="#3C3A3A"/>
</svg>
