<svg width="18" height="18" viewBox="0 0 18 18" fill="none" xmlns="http://www.w3.org/2000/svg">
<g clip-path="url(#clip0_246_1100)">
<path d="M15.8208 8.02577C15.8208 12.9724 9.46077 17.2124 9.46077 17.2124C9.46077 17.2124 3.10077 12.9724 3.10077 8.02577C3.10077 6.33899 3.77084 4.7213 4.96357 3.52857C6.1563 2.33584 7.77399 1.66577 9.46077 1.66577C11.1475 1.66577 12.7652 2.33584 13.958 3.52857C15.1507 4.7213 15.8208 6.33899 15.8208 8.02577Z" stroke="#7E7777" stroke-width="2" stroke-linecap="round" stroke-linejoin="round"/>
<path d="M9.46076 10.1458C10.6316 10.1458 11.5808 9.19661 11.5808 8.02576C11.5808 6.85492 10.6316 5.90576 9.46076 5.90576C8.28992 5.90576 7.34076 6.85492 7.34076 8.02576C7.34076 9.19661 8.28992 10.1458 9.46076 10.1458Z" stroke="#7E7777" stroke-width="2" stroke-linecap="round" stroke-linejoin="round"/>
</g>
<defs>
<clipPath id="clip0_246_1100">
<rect width="16.96" height="16.96" fill="white" transform="translate(0.980774 0.959106)"/>
</clipPath>
</defs>
</svg>
