<svg width="18" height="18" viewBox="0 0 18 18" fill="none" xmlns="http://www.w3.org/2000/svg">
<g clip-path="url(#clip0_246_1085)">
<path d="M15.8208 7.41164C15.8208 12.3583 9.46077 16.5983 9.46077 16.5983C9.46077 16.5983 3.10077 12.3583 3.10077 7.41164C3.10077 5.72486 3.77084 4.10717 4.96357 2.91444C6.1563 1.72171 7.77399 1.05164 9.46077 1.05164C11.1475 1.05164 12.7652 1.72171 13.958 2.91444C15.1507 4.10717 15.8208 5.72486 15.8208 7.41164Z" stroke="#7E7777" stroke-width="2" stroke-linecap="round" stroke-linejoin="round"/>
<path d="M9.46076 9.53163C10.6316 9.53163 11.5808 8.58247 11.5808 7.41163C11.5808 6.24078 10.6316 5.29163 9.46076 5.29163C8.28992 5.29163 7.34076 6.24078 7.34076 7.41163C7.34076 8.58247 8.28992 9.53163 9.46076 9.53163Z" stroke="#7E7777" stroke-width="2" stroke-linecap="round" stroke-linejoin="round"/>
</g>
<defs>
<clipPath id="clip0_246_1085">
<rect width="16.96" height="16.96" fill="white" transform="translate(0.980774 0.344971)"/>
</clipPath>
</defs>
</svg>
