<svg width="21" height="20" viewBox="0 0 21 20" fill="none" xmlns="http://www.w3.org/2000/svg">
<g clip-path="url(#clip0_246_852)">
<path d="M17.6016 8.33337C17.6016 14.1667 10.1016 19.1667 10.1016 19.1667C10.1016 19.1667 2.60156 14.1667 2.60156 8.33337C2.60156 6.34425 3.39174 4.4366 4.79826 3.03007C6.20478 1.62355 8.11244 0.833374 10.1016 0.833374C12.0907 0.833374 13.9983 1.62355 15.4049 3.03007C16.8114 4.4366 17.6016 6.34425 17.6016 8.33337Z" stroke="#7E7777" stroke-width="2" stroke-linecap="round" stroke-linejoin="round"/>
<path d="M10.1016 10.8334C11.4823 10.8334 12.6016 9.71409 12.6016 8.33337C12.6016 6.95266 11.4823 5.83337 10.1016 5.83337C8.72085 5.83337 7.60156 6.95266 7.60156 8.33337C7.60156 9.71409 8.72085 10.8334 10.1016 10.8334Z" stroke="#7E7777" stroke-width="2" stroke-linecap="round" stroke-linejoin="round"/>
</g>
<defs>
<clipPath id="clip0_246_852">
<rect width="20" height="20" fill="white" transform="translate(0.101562)"/>
</clipPath>
</defs>
</svg>
