<svg width="18" height="18" viewBox="0 0 18 18" fill="none" xmlns="http://www.w3.org/2000/svg">
<g clip-path="url(#clip0_246_1324)">
<path d="M15.8208 8.02577C15.8208 12.9724 9.46083 17.2124 9.46083 17.2124C9.46083 17.2124 3.10083 12.9724 3.10083 8.02577C3.10083 6.33899 3.7709 4.7213 4.96363 3.52857C6.15636 2.33584 7.77405 1.66577 9.46083 1.66577C11.1476 1.66577 12.7653 2.33584 13.958 3.52857C15.1508 4.7213 15.8208 6.33899 15.8208 8.02577Z" stroke="#7E7777" stroke-width="2" stroke-linecap="round" stroke-linejoin="round"/>
<path d="M9.46082 10.1458C10.6317 10.1458 11.5808 9.19661 11.5808 8.02576C11.5808 6.85492 10.6317 5.90576 9.46082 5.90576C8.28998 5.90576 7.34082 6.85492 7.34082 8.02576C7.34082 9.19661 8.28998 10.1458 9.46082 10.1458Z" stroke="#7E7777" stroke-width="2" stroke-linecap="round" stroke-linejoin="round"/>
</g>
<defs>
<clipPath id="clip0_246_1324">
<rect width="16.96" height="16.96" fill="white" transform="translate(0.980713 0.959106)"/>
</clipPath>
</defs>
</svg>
