<svg width="18" height="18" viewBox="0 0 18 18" fill="none" xmlns="http://www.w3.org/2000/svg">
<g clip-path="url(#clip0_246_1339)">
<path d="M15.8208 7.4117C15.8208 12.3584 9.46083 16.5984 9.46083 16.5984C9.46083 16.5984 3.10083 12.3584 3.10083 7.4117C3.10083 5.72492 3.7709 4.10723 4.96363 2.9145C6.15636 1.72177 7.77405 1.0517 9.46083 1.0517C11.1476 1.0517 12.7653 1.72177 13.958 2.9145C15.1508 4.10723 15.8208 5.72492 15.8208 7.4117Z" stroke="#7E7777" stroke-width="2" stroke-linecap="round" stroke-linejoin="round"/>
<path d="M9.46082 9.53169C10.6317 9.53169 11.5808 8.58253 11.5808 7.41169C11.5808 6.24084 10.6317 5.29169 9.46082 5.29169C8.28998 5.29169 7.34082 6.24084 7.34082 7.41169C7.34082 8.58253 8.28998 9.53169 9.46082 9.53169Z" stroke="#7E7777" stroke-width="2" stroke-linecap="round" stroke-linejoin="round"/>
</g>
<defs>
<clipPath id="clip0_246_1339">
<rect width="16.96" height="16.96" fill="white" transform="translate(0.980713 0.345032)"/>
</clipPath>
</defs>
</svg>
