<svg width="4" height="4" viewBox="0 0 4 4" fill="none" xmlns="http://www.w3.org/2000/svg">
<path d="M2.8679 1.89586C2.8679 2.12549 2.79981 2.34995 2.67224 2.54088C2.54466 2.73181 2.36334 2.88061 2.15119 2.96849C1.93905 3.05636 1.70561 3.07935 1.4804 3.03455C1.25519 2.98976 1.04832 2.87918 0.885949 2.71681C0.72358 2.55445 0.613005 2.34758 0.568207 2.12236C0.52341 1.89715 0.546401 1.66371 0.634274 1.45157C0.722148 1.23942 0.870957 1.0581 1.06188 0.930527C1.25281 0.802954 1.47727 0.734863 1.7069 0.734863C2.01481 0.734863 2.31012 0.857183 2.52785 1.07491C2.74558 1.29264 2.8679 1.58795 2.8679 1.89586V1.89586Z" stroke="white" stroke-linecap="round" stroke-linejoin="round"/>
</svg>
