<svg width="5" height="4" viewBox="0 0 5 4" fill="none" xmlns="http://www.w3.org/2000/svg">
<path d="M3.676 1.89586C3.676 2.12549 3.60791 2.34995 3.48034 2.54088C3.35277 2.73181 3.17144 2.88061 2.9593 2.96849C2.74715 3.05636 2.51372 3.07935 2.2885 3.03455C2.06329 2.98976 1.85642 2.87918 1.69405 2.71681C1.53168 2.55445 1.42111 2.34758 1.37631 2.12236C1.33152 1.89715 1.35451 1.66371 1.44238 1.45157C1.53025 1.23942 1.67906 1.0581 1.86999 0.930527C2.06091 0.802954 2.28538 0.734863 2.515 0.734863C2.82292 0.734863 3.11823 0.857183 3.33596 1.07491C3.55368 1.29264 3.676 1.58795 3.676 1.89586V1.89586Z" stroke="black" stroke-linecap="round" stroke-linejoin="round"/>
</svg>
