<svg width="4" height="4" viewBox="0 0 4 4" fill="none" xmlns="http://www.w3.org/2000/svg">
<path d="M2.86802 1.89586C2.86802 2.12549 2.79993 2.34995 2.67236 2.54088C2.54479 2.73181 2.36346 2.88061 2.15132 2.96849C1.93917 3.05636 1.70573 3.07935 1.48052 3.03455C1.25531 2.98976 1.04844 2.87918 0.886071 2.71681C0.723702 2.55445 0.613127 2.34758 0.56833 2.12236C0.523532 1.89715 0.546523 1.66371 0.634396 1.45157C0.72227 1.23942 0.871079 1.0581 1.062 0.930527C1.25293 0.802954 1.4774 0.734863 1.70702 0.734863C2.01494 0.734863 2.31024 0.857183 2.52797 1.07491C2.7457 1.29264 2.86802 1.58795 2.86802 1.89586V1.89586Z" stroke="black" stroke-linecap="round" stroke-linejoin="round"/>
</svg>
